<svg xmlns="http://www.w3.org/2000/svg" viewBox="0 0 128 128"><rect width="128" height="128" rx="36" fill="#f0eacb"/><path d="M43 97V58" stroke="#457359" stroke-width="9"/><path d="M42 84Q15 56 20 80q4 13 23 12" fill="#71986b"/><g fill="#7773b1"><ellipse cx="42" cy="34" rx="13" ry="20"/><ellipse cx="42" cy="66" rx="13" ry="20"/><ellipse cx="27" cy="50" rx="20" ry="13"/><ellipse cx="57" cy="50" rx="20" ry="13"/></g><circle cx="42" cy="50" r="15" fill="#f6ce70"/><circle cx="84" cy="87" r="25" fill="#a47958"/><circle cx="68" cy="65" r="13" fill="#a47958"/><circle cx="101" cy="65" r="13" fill="#a47958"/><circle cx="68" cy="65" r="7" fill="#dbac99"/><circle cx="101" cy="65" r="7" fill="#dbac99"/><ellipse cx="84" cy="98" rx="15" ry="13" fill="#efd1bb"/><circle cx="77" cy="84" r="3" fill="#293b36"/><circle cx="93" cy="84" r="3" fill="#293b36"/><path d="M80 95h9l-4 5z" fill="#b56b6b"/></svg>
